<svg width="117" height="81" viewBox="0 0 117 81" fill="none" xmlns="http://www.w3.org/2000/svg">
<path d="M110.091 28.8248C112.174 28.6204 112.766 26.5471 112.84 24.525C112.918 22.4371 112.438 20.3675 111.547 18.4913C103.398 1.42329 91.6219 0.17495 89.5812 0.0873473C89.2358 0.0727468 88.8939 0.050846 88.5485 0.0325954C73.523 -0.737582 70.8337 12.1948 70.8337 12.1948C50.2146 9.93539 38.9147 16.9181 38.9147 16.9181C14.5278 -17.9881 1.83912 17.9438 1.83912 17.9438C-4.50521 36.6288 7.58779 41.0746 7.58779 41.0746L4.81038 56.5804C2.43126 67.5016 10.9573 75.2252 10.9573 75.2252C23.0503 85.6975 61.3172 78.7148 61.3172 78.7148C98.9884 72.3489 109.298 62.9061 109.298 62.9061C126.149 50.3825 110.091 28.8248 110.091 28.8248ZM17.1677 25.9303C13.8933 26.3318 10.6895 22.9335 10.9503 19.3454C11.1653 16.4399 13.6325 13.7206 16.6003 13.7863C19.0499 13.841 21.0378 15.7683 21.6863 17.8817C22.7049 21.2143 20.5443 25.5141 17.1642 25.9266L17.1677 25.9303ZM98.5373 15.396C98.5196 15.5675 98.213 18.1445 96.137 19.4914C92.9507 21.5574 87.5016 19.4987 86.3879 15.688C85.8697 13.9104 86.2716 11.6838 87.6603 10.1289C89.9125 7.60661 93.3314 8.44979 93.5922 8.51914C96.4648 9.28202 98.8615 12.2642 98.5373 15.396Z" fill="black"/>
</svg>
